<svg xmlns="http://www.w3.org/2000/svg" version="1.1" xmlnsXlink="http://www.w3.org/1999/xlink" xmlns:svgjs="http://svgjs.dev/svgjs" width="1000" height="623" viewBox="0 0 1000 623"><g transform="matrix(1,0,0,1,-0.6060606060606233,0.2522267206477409)"><svg viewBox="0 0 396 247" data-background-color="#0a1627" preserveAspectRatio="xMidYMid meet" height="623" width="1000" xmlns="http://www.w3.org/2000/svg" xmlnsXlink="http://www.w3.org/1999/xlink"><g id="tight-bounds" transform="matrix(1,0,0,1,0.2400000000000091,-0.09999999999999432)"><svg viewBox="0 0 395.52 247.2" height="247.2" width="395.52"><g><svg></svg></g><g><svg viewBox="0 0 395.52 247.2" height="247.2" width="395.52"><g transform="matrix(1,0,0,1,95.10300177987781,47.215199999999996)"><svg viewBox="0 0 205.31399644024435 152.7696" height="152.7696" width="205.31399644024435"><g><svg viewBox="0 0 205.31399644024435 152.7696" height="152.7696" width="205.31399644024435"><g><svg viewBox="0 0 244.43135999999998 181.87596433798956" height="152.7696" width="205.31399644024435"><g transform="matrix(1,0,0,1,0,96.0541193039589)"><svg viewBox="0 0 244.43135999999998 85.82184503403067" height="85.82184503403067" width="244.43135999999998"><g><svg viewBox="0 0 244.43135999999998 85.82184503403067" height="85.82184503403067" width="244.43135999999998"><g><svg viewBox="0 0 244.43135999999998 48.653935789767964" height="48.653935789767964" width="244.43135999999998"><g transform="matrix(1,0,0,1,0,0)"><svg width="244.43135999999998" viewBox="1.399999976158142 -35 178.8400115966797 35.599998474121094" height="48.653935789767964" data-palette-color="#fe0039"><path d="M8.25-34.5L13.25-34.5 13.25-7.15Q13.25-3.4 11.45-1.48 9.65 0.45 6.35 0.45L6.35 0.45Q5.65 0.45 4.7 0.38 3.75 0.3 2.88 0.15 2 0 1.4-0.25L1.4-0.25 1.95-3.7 4.45-3.7Q8.25-3.7 8.25-7.3L8.25-7.3 8.25-34.5ZM32.8-25L32.8-25Q35.6-25 37.52-24.28 39.45-23.55 40.42-21.8 41.4-20.05 41.4-17L41.4-17 41.4 0 37.6 0 36.85-5.3 36.55-5.9 36.55-17Q36.55-19.15 35.55-20.1 34.55-21.05 31.75-21.05L31.75-21.05Q29.85-21.05 26.97-20.85 24.1-20.65 21.3-20.45L21.3-20.45 20.85-23.9Q22.55-24.2 24.62-24.45 26.7-24.7 28.85-24.85 31-25 32.8-25ZM26.6-15.05L39.2-15.05 39.15-11.65 27.65-11.6Q25.95-11.55 25.27-10.73 24.6-9.9 24.6-8.45L24.6-8.45 24.6-6.95Q24.6-5.15 25.47-4.33 26.35-3.5 28.25-3.5L28.25-3.5Q29.65-3.5 31.37-4.03 33.1-4.55 34.85-5.63 36.6-6.7 38-8.35L38-8.35 38-5.2Q37.5-4.5 36.5-3.53 35.5-2.55 34.07-1.65 32.65-0.75 30.92-0.15 29.2 0.45 27.15 0.45L27.15 0.45Q24.95 0.45 23.27-0.33 21.6-1.1 20.65-2.63 19.7-4.15 19.7-6.35L19.7-6.35 19.7-9Q19.7-11.85 21.52-13.45 23.35-15.05 26.6-15.05L26.6-15.05ZM63.75-24.4L69.35-24.4 61.9-15.55Q61.55-15.05 61-14.53 60.45-14 60.1-13.75L60.1-13.75 60.1-13.65Q60.45-13.4 61-12.78 61.55-12.15 61.9-11.55L61.9-11.55 70.15 0 64.55 0 55.15-13.95 63.75-24.4ZM48.7-35L53.5-35 53.55-19.65Q53.55-18.05 53.42-16.68 53.3-15.3 53-13.8L53-13.8Q53.3-12.4 53.4-10.95 53.5-9.5 53.5-8.2L53.5-8.2 53.5 0 48.7 0 48.7-35ZM51.85-15.45L57.55-15.45 57.55-12.05 51.85-12.05 51.85-15.45ZM84.09-25L84.09-25Q89.74-25 92.27-22.98 94.79-20.95 94.79-17L94.79-17Q94.84-13.7 93.37-11.9 91.89-10.1 88.59-10.1L88.59-10.1 74.49-10.1 74.49-13.55 87.34-13.55Q88.99-13.55 89.49-14.6 89.99-15.65 89.99-17L89.99-17Q89.94-19.25 88.67-20.2 87.39-21.15 84.29-21.15L84.29-21.15Q81.74-21.15 80.29-20.4 78.84-19.65 78.27-17.8 77.69-15.95 77.69-12.6L77.69-12.6Q77.69-8.85 78.42-6.88 79.14-4.9 80.77-4.15 82.39-3.4 85.09-3.4L85.09-3.4Q86.99-3.4 89.37-3.58 91.74-3.75 93.69-4L93.69-4 94.19-0.85Q92.99-0.35 91.29-0.03 89.59 0.3 87.79 0.45 85.99 0.6 84.49 0.6L84.49 0.6Q80.19 0.6 77.59-0.7 74.99-2 73.79-4.83 72.59-7.65 72.59-12.25L72.59-12.25Q72.59-17.05 73.79-19.85 74.99-22.65 77.54-23.83 80.09-25 84.09-25ZM113.49-34.95L113.49-34.95Q117.59-34.95 120.12-34.08 122.64-33.2 123.79-31.03 124.94-28.85 124.94-24.95L124.94-24.95Q124.94-22.2 124.29-20.35 123.64-18.5 122.27-17.45 120.89-16.4 118.54-16.1L118.54-16.1 118.54-15.85Q119.39-15.65 120.24-15.05 121.09-14.45 121.84-13.43 122.59-12.4 122.94-10.85L122.94-10.85 126.19 0 120.89 0 117.89-10.75Q117.29-12.65 116.24-13.45 115.19-14.25 113.49-14.25L113.49-14.25Q110.34-14.25 108.09-14.28 105.84-14.3 104.32-14.35 102.79-14.4 101.84-14.4L101.84-14.4 101.99-18.4 113.39-18.4Q115.84-18.45 117.24-18.98 118.64-19.5 119.27-20.85 119.89-22.2 119.89-24.65L119.89-24.65Q119.89-27.1 119.27-28.43 118.64-29.75 117.24-30.28 115.84-30.8 113.39-30.8L113.39-30.8Q109.19-30.8 106.14-30.75 103.09-30.7 102.04-30.7L102.04-30.7 101.34-34.5Q103.24-34.7 104.94-34.8 106.64-34.9 108.67-34.93 110.69-34.95 113.49-34.95ZM101.34-34.5L106.29-34.5 106.29 0 101.34 0 101.34-34.5ZM142.09-25L142.09-25Q147.74-25 150.26-22.98 152.79-20.95 152.79-17L152.79-17Q152.84-13.7 151.36-11.9 149.89-10.1 146.59-10.1L146.59-10.1 132.49-10.1 132.49-13.55 145.34-13.55Q146.99-13.55 147.49-14.6 147.99-15.65 147.99-17L147.99-17Q147.94-19.25 146.66-20.2 145.39-21.15 142.29-21.15L142.29-21.15Q139.74-21.15 138.29-20.4 136.84-19.65 136.26-17.8 135.69-15.95 135.69-12.6L135.69-12.6Q135.69-8.85 136.41-6.88 137.14-4.9 138.76-4.15 140.39-3.4 143.09-3.4L143.09-3.4Q144.99-3.4 147.36-3.58 149.74-3.75 151.69-4L151.69-4 152.19-0.85Q150.99-0.35 149.29-0.03 147.59 0.3 145.79 0.45 143.99 0.6 142.49 0.6L142.49 0.6Q138.19 0.6 135.59-0.7 132.99-2 131.79-4.83 130.59-7.65 130.59-12.25L130.59-12.25Q130.59-17.05 131.79-19.85 132.99-22.65 135.54-23.83 138.09-25 142.09-25ZM167.04-25L167.04-25Q169.49-25 171.84-24.38 174.19-23.75 176.29-22.35L176.29-22.35 175.99-19.55Q173.79-20.25 172.06-20.65 170.34-21.05 168.34-21.05L168.34-21.05Q166.34-21.05 165.11-20.35 163.89-19.65 163.31-17.75 162.74-15.85 162.74-12.35L162.74-12.35Q162.74-8.9 163.29-6.98 163.84-5.05 165.04-4.3 166.24-3.55 168.09-3.55L168.09-3.55Q169.49-3.55 170.64-3.9 171.79-4.25 173.04-5.05 174.29-5.85 175.99-7.05L175.99-7.05 176.39-3.95Q174.49-2.05 171.96-0.73 169.44 0.6 166.39 0.6L166.39 0.6Q161.79 0.6 159.79-2.68 157.79-5.95 157.79-12.3L157.79-12.3Q157.79-17.1 158.81-19.88 159.84-22.65 161.89-23.83 163.94-25 167.04-25ZM175.39-35L180.24-35 180.24 0 176.44 0 175.89-4.3 175.39-4.7 175.39-21.3 175.69-22.05Q175.49-23.45 175.44-24.8 175.39-26.15 175.39-27.65L175.39-27.65 175.39-35Z" opacity="1" transform="matrix(1,0,0,1,0,0)" fill="#fe0039" class="undefined-text-0" data-fill-palette-color="primary" id="text-0"></path></svg></g></svg></g><g transform="matrix(1,0,0,1,0,55.753712715954066)"><svg viewBox="0 0 244.43135999999998 30.068132318076604" height="30.068132318076604" width="244.43135999999998"><g transform="matrix(1,0,0,1,0,0)"><svg width="244.43135999999998" viewBox="1.5499999523162842 -35 366.2200012207031 45.04999923706055" height="30.068132318076604" data-palette-color="#c1c1c1"><path d="M41.2-34.5L45.85-34.5 38.85-1.3Q38.7-0.75 38.25-0.38 37.8 0 37.1 0L37.1 0 32.1 0Q31.45 0 30.98-0.38 30.5-0.75 30.4-1.35L30.4-1.35 25-27.3Q24.8-28.3 24.6-29.28 24.4-30.25 24.2-31.2L24.2-31.2 23.15-31.2Q22.95-30.25 22.78-29.25 22.6-28.25 22.4-27.3L22.4-27.3 17.05-1.35Q16.9-0.75 16.43-0.38 15.95 0 15.3 0L15.3 0 10.25 0Q9.6 0 9.13-0.38 8.65-0.75 8.55-1.3L8.55-1.3 1.55-34.5 6.2-34.5 11.6-7.6Q11.8-6.65 11.95-5.58 12.1-4.5 12.3-3.35L12.3-3.35 13.45-3.35Q13.65-4.5 13.85-5.55 14.05-6.6 14.25-7.6L14.25-7.6 19.6-33.05Q19.7-33.7 20.18-34.1 20.65-34.5 21.3-34.5L21.3-34.5 26.1-34.5Q26.75-34.5 27.2-34.1 27.65-33.7 27.8-33.05L27.8-33.05 33.15-7.6Q33.4-6.5 33.58-5.45 33.75-4.4 33.85-3.35L33.85-3.35 35.1-3.35Q35.25-4.4 35.4-5.48 35.55-6.55 35.75-7.55L35.75-7.55 41.2-34.5ZM62.36-24.95L62.36-24.95Q67.86-24.95 70.34-22.95 72.81-20.95 72.81-17L72.81-17Q72.86-13.75 71.46-11.93 70.06-10.1 67.01-10.1L67.01-10.1 52.81-10.1 52.81-13.4 65.91-13.4Q67.56-13.4 68.06-14.53 68.56-15.65 68.56-17L68.56-17Q68.51-19.35 67.16-20.35 65.81-21.35 62.56-21.35L62.56-21.35Q59.91-21.35 58.39-20.58 56.86-19.8 56.24-17.88 55.61-15.95 55.61-12.5L55.61-12.5Q55.61-8.6 56.39-6.55 57.16-4.5 58.86-3.75 60.56-3 63.36-3L63.36-3Q65.31-3 67.64-3.18 69.96-3.35 71.81-3.6L71.81-3.6 72.26-0.75Q71.11-0.3 69.44 0 67.76 0.3 65.99 0.45 64.21 0.6 62.81 0.6L62.81 0.6Q58.61 0.6 56.06-0.68 53.51-1.95 52.34-4.78 51.16-7.6 51.16-12.25L51.16-12.25Q51.16-17.05 52.34-19.83 53.51-22.6 55.99-23.78 58.46-24.95 62.36-24.95ZM94.28-24.95L94.28-24.95Q98.78-24.95 100.93-22.03 103.08-19.1 103.08-12.25L103.08-12.25Q103.08-9.1 102.55-6.7 102.03-4.3 100.8-2.68 99.58-1.05 97.5-0.23 95.43 0.6 92.28 0.6L92.28 0.6Q91.03 0.6 89.58 0.5 88.13 0.4 86.63 0.18 85.13-0.05 83.7-0.38 82.28-0.7 81.08-1.15L81.08-1.15 84.48-4.05Q85.83-3.65 87.15-3.4 88.48-3.15 89.75-3.08 91.03-3 92.18-3L92.18-3Q94.53-3.05 95.95-3.9 97.38-4.75 98.03-6.78 98.68-8.8 98.68-12.25L98.68-12.25Q98.68-15.6 98.18-17.57 97.68-19.55 96.4-20.4 95.13-21.25 92.78-21.25L92.78-21.25Q90.78-21.25 88.98-20.18 87.18-19.1 84.83-17.25L84.83-17.25 84.53-20.1Q86.03-21.7 87.6-22.78 89.18-23.85 90.88-24.4 92.58-24.95 94.28-24.95ZM81.08-35L85.33-35 85.33-25.9Q85.33-24.35 85.25-23.05 85.18-21.75 84.88-20.4L84.88-20.4 85.28-19.7 85.33-0.95 81.08-1.15 81.08-35ZM137.51-34.95L137.51-34.95Q141.21-34.95 143.78-34.05 146.36-33.15 147.93-31.1 149.51-29.05 150.23-25.65 150.96-22.25 150.96-17.25L150.96-17.25Q150.96-12.25 150.23-8.85 149.51-5.45 147.93-3.4 146.36-1.35 143.78-0.45 141.21 0.45 137.51 0.45L137.51 0.45Q133.96 0.45 130.93 0.33 127.91 0.2 125.21 0L125.21 0 127.11-3.6Q129.21-3.55 131.78-3.48 134.36-3.4 137.51-3.4L137.51-3.4Q140.81-3.4 142.76-4.67 144.71-5.95 145.53-8.97 146.36-12 146.36-17.25L146.36-17.25Q146.36-22.5 145.53-25.53 144.71-28.55 142.76-29.85 140.81-31.15 137.51-31.15L137.51-31.15Q134.41-31.15 131.93-31.1 129.46-31.05 127.11-31L127.11-31 125.21-34.5Q127.91-34.7 130.93-34.83 133.96-34.95 137.51-34.95ZM125.21-34.5L129.61-34.5 129.61 0 125.21 0 125.21-34.5ZM169.92-24.95L169.92-24.95Q175.42-24.95 177.9-22.95 180.37-20.95 180.37-17L180.37-17Q180.42-13.75 179.02-11.93 177.62-10.1 174.57-10.1L174.57-10.1 160.37-10.1 160.37-13.4 173.47-13.4Q175.12-13.4 175.62-14.53 176.12-15.65 176.12-17L176.12-17Q176.07-19.35 174.72-20.35 173.37-21.35 170.12-21.35L170.12-21.35Q167.47-21.35 165.95-20.58 164.42-19.8 163.8-17.88 163.17-15.95 163.17-12.5L163.17-12.5Q163.17-8.6 163.95-6.55 164.72-4.5 166.42-3.75 168.12-3 170.92-3L170.92-3Q172.87-3 175.2-3.18 177.52-3.35 179.37-3.6L179.37-3.6 179.82-0.75Q178.67-0.3 177 0 175.32 0.3 173.55 0.45 171.77 0.6 170.37 0.6L170.37 0.6Q166.17 0.6 163.62-0.68 161.07-1.95 159.9-4.78 158.72-7.6 158.72-12.25L158.72-12.25Q158.72-17.05 159.9-19.83 161.07-22.6 163.55-23.78 166.02-24.95 169.92-24.95ZM205.74-24.35L210.24-24.35 201.34-1.05Q201.14-0.55 200.76-0.28 200.39 0 199.84 0L199.84 0 195.99 0Q195.49 0 195.09-0.28 194.69-0.55 194.49-1.05L194.49-1.05 185.59-24.35 190.14-24.35 196.14-7.3Q196.54-6.25 196.89-5.15 197.24-4.05 197.59-3.05L197.59-3.05 198.24-3.05Q198.64-4.1 199.01-5.18 199.39-6.25 199.74-7.3L199.74-7.3 205.74-24.35ZM226.75-24.95L226.75-24.95Q232.25-24.95 234.73-22.95 237.2-20.95 237.2-17L237.2-17Q237.25-13.75 235.85-11.93 234.45-10.1 231.4-10.1L231.4-10.1 217.2-10.1 217.2-13.4 230.3-13.4Q231.95-13.4 232.45-14.53 232.95-15.65 232.95-17L232.95-17Q232.9-19.35 231.55-20.35 230.2-21.35 226.95-21.35L226.95-21.35Q224.3-21.35 222.78-20.58 221.25-19.8 220.63-17.88 220-15.95 220-12.5L220-12.5Q220-8.6 220.78-6.55 221.55-4.5 223.25-3.75 224.95-3 227.75-3L227.75-3Q229.7-3 232.03-3.18 234.35-3.35 236.2-3.6L236.2-3.6 236.65-0.75Q235.5-0.3 233.83 0 232.15 0.3 230.38 0.45 228.6 0.6 227.2 0.6L227.2 0.6Q223 0.6 220.45-0.68 217.9-1.95 216.73-4.78 215.55-7.6 215.55-12.25L215.55-12.25Q215.55-17.05 216.73-19.83 217.9-22.6 220.38-23.78 222.85-24.95 226.75-24.95ZM245.62-35L249.87-35 249.82-6.7Q249.82-5.1 250.69-4.28 251.57-3.45 253.17-3.45L253.17-3.45 255.52-3.45 256.02-0.2Q255.57 0 254.74 0.15 253.92 0.3 253.04 0.38 252.17 0.45 251.57 0.45L251.57 0.45Q248.87 0.45 247.24-1.15 245.62-2.75 245.62-5.75L245.62-5.75 245.62-35ZM272.68-24.95L272.68-24.95Q276.88-24.95 279.4-23.7 281.93-22.45 283.03-19.63 284.13-16.8 284.13-12.15L284.13-12.15Q284.13-7.5 283.03-4.67 281.93-1.85 279.4-0.6 276.88 0.65 272.68 0.65L272.68 0.65Q268.53 0.65 266-0.6 263.48-1.85 262.35-4.67 261.23-7.5 261.23-12.15L261.23-12.15Q261.23-16.8 262.35-19.63 263.48-22.45 266-23.7 268.53-24.95 272.68-24.95ZM272.68-21.35L272.68-21.35Q270.03-21.35 268.5-20.53 266.98-19.7 266.33-17.7 265.68-15.7 265.68-12.15L265.68-12.15Q265.68-8.6 266.33-6.6 266.98-4.6 268.5-3.78 270.03-2.95 272.68-2.95L272.68-2.95Q275.33-2.95 276.88-3.78 278.43-4.6 279.08-6.6 279.73-8.6 279.73-12.15L279.73-12.15Q279.73-15.7 279.08-17.7 278.43-19.7 276.88-20.53 275.33-21.35 272.68-21.35ZM306.69-24.95L306.69-24.95Q311.14-24.95 313.09-21.68 315.04-18.4 315.04-12.05L315.04-12.05Q315.04-7.35 314.04-4.58 313.04-1.8 311.02-0.6 308.99 0.6 305.84 0.6L305.84 0.6Q303.44 0.6 301.12-0.05 298.79-0.7 296.59-2.05L296.59-2.05 296.84-4.6Q299.19-3.95 300.99-3.53 302.79-3.1 304.79-3.1L304.79-3.1Q306.94-3.1 308.22-3.85 309.49-4.6 310.09-6.55 310.69-8.5 310.69-12.05L310.69-12.05Q310.69-15.5 310.14-17.5 309.59-19.5 308.42-20.38 307.24-21.25 305.29-21.25L305.29-21.25Q303.29-21.25 301.34-20.3 299.39-19.35 296.79-17.4L296.79-17.4 296.39-20.25Q297.74-21.7 299.44-22.75 301.14-23.8 303.02-24.38 304.89-24.95 306.69-24.95ZM292.74-24.35L296.24-24.35 296.69-19.3 296.99-18.65 296.99-3.05 296.79-2.45Q296.94-1.05 296.97 0.25 296.99 1.55 296.99 3L296.99 3 296.99 10.05 292.74 10.05 292.74-24.35ZM333.71-24.95L333.71-24.95Q339.21-24.95 341.68-22.95 344.16-20.95 344.16-17L344.16-17Q344.21-13.75 342.81-11.93 341.41-10.1 338.36-10.1L338.36-10.1 324.16-10.1 324.16-13.4 337.26-13.4Q338.91-13.4 339.41-14.53 339.91-15.65 339.91-17L339.91-17Q339.86-19.35 338.51-20.35 337.16-21.35 333.91-21.35L333.91-21.35Q331.26-21.35 329.73-20.58 328.21-19.8 327.58-17.88 326.96-15.95 326.96-12.5L326.96-12.5Q326.96-8.6 327.73-6.55 328.51-4.5 330.21-3.75 331.91-3 334.71-3L334.71-3Q336.66-3 338.98-3.18 341.31-3.35 343.16-3.6L343.16-3.6 343.61-0.75Q342.46-0.3 340.78 0 339.11 0.3 337.33 0.45 335.56 0.6 334.16 0.6L334.16 0.6Q329.96 0.6 327.41-0.68 324.86-1.95 323.68-4.78 322.51-7.6 322.51-12.25L322.51-12.25Q322.51-17.05 323.68-19.83 324.86-22.6 327.33-23.78 329.81-24.95 333.71-24.95ZM352.52-24.35L355.82-24.35 356.37-19.7 356.77-18.95 356.77 0 352.52 0 352.52-24.35ZM366.67-24.95L367.77-24.95 367.27-20.95 365.87-20.95Q363.72-20.95 361.57-20.08 359.42-19.2 356.32-17.6L356.32-17.6 355.97-20.25Q358.67-22.45 361.4-23.7 364.12-24.95 366.67-24.95L366.67-24.95Z" opacity="1" transform="matrix(1,0,0,1,0,0)" fill="#c1c1c1" class="undefined-text-1" data-fill-palette-color="secondary" id="text-1"></path></svg></g></svg></g></svg></g></svg></g><g transform="matrix(1,0,0,1,71.73120609816152,0)"><svg viewBox="0 0 100.96894780367694 88.9543423777728" height="88.9543423777728" width="100.96894780367694"><g><svg xmlns="http://www.w3.org/2000/svg" xmlnsXlink="http://www.w3.org/1999/xlink" version="1.1" x="0" y="0" viewBox="6.300000190734863 11.5 87.39999389648438 77" style="enable-background:new 0 0 100 100;" xml:space="preserve" height="88.9543423777728" width="100.96894780367694" class="icon-icon-0" data-fill-palette-color="accent" id="icon-0"><path d="M72.3 12.3L72.3 12.3 72.3 12.3l-0.4-0.8H28.2L6.3 50l21.8 38.5h43.7L93.7 50 72.3 12.3zM33.3 25.3L9.9 47.7l18.6-32.8L33.3 25.3zM70.7 14.8l6.4 35.7L36.9 25.8 70.7 14.8zM35.5 27.3l41 25.2-41 23.3V27.3zM77 54.5l-7.2 30.8-32.6-8.1L77 54.5zM33.5 75L9.9 50.5l23.6-22.7V75zM33.2 77.6l-4.6 7.7L11.5 55.1 33.2 77.6zM35 78.6l31.4 7.9H30.2L35 78.6zM79.3 53.3l11.6-2.5L72.1 84 79.3 53.3zM90.7 48.9l-11.4 2.5-5.9-33.1L90.7 48.9zM35 24.3l-5-10.8h38.2L35 24.3z" fill="#c1c1c1" data-fill-palette-color="accent"></path></svg></g></svg></g><g></g></svg></g></svg></g></svg></g><g><path d="M156.799 41.252A102.657 102.657 0 0 1 238.721 41.252L236.443 41.252A100.379 100.379 0 0 0 159.077 41.252L156.799 41.252M156.799 205.948A102.657 102.657 0 0 0 238.721 205.948L236.443 205.948A100.379 100.379 0 0 1 159.077 205.948L156.799 205.948" fill="#fe0039" stroke="transparent" data-fill-palette-color="tertiary"></path></g></svg></g><defs><mask id="1f4819da-fe83-476f-bccc-20fa02576e42"><rect width="640" height="400" fill="white"></rect><rect width="348.05760000000004" height="129.47753901152475" fill="black" x="145.97119999999998" y="135.26123049423762" id="transform-me" transform="matrix(1,0,0,1,-160,-20)"></rect></mask><mask id="091debcd-6685-48f4-90c1-114cfd5a3fcb"><rect width="640" height="400" fill="white"></rect><rect width="348.05760000000004" height="129.47753901152475" fill="black" x="145.97119999999998" y="135.26123049423762" id="transform-me" transform="matrix(1,0,0,1,-160,-20)"></rect></mask></defs></svg><rect width="395.52" height="247.2" fill="none" stroke="none" visibility="hidden"></rect></g></svg></g></svg>